Coordinates
version=1
nRows=14
nColumns=24
inDegrees=yes

Units are S.I. units (second, meters, Newtons, ...)
Angles are in degrees.

endheader
time	pelvis_tilt	pelvis_list	pelvis_rotation	pelvis_tx	pelvis_ty	pelvis_tz	hip_flexion_r	hip_adduction_r	hip_rotation_r	knee_angle_r	ankle_angle_r	subtalar_angle_r	mtp_angle_r	hip_flexion_l	hip_adduction_l	hip_rotation_l	knee_angle_l	ankle_angle_l	subtalar_angle_l	mtp_angle_l	lumbar_extension	lumbar_bending	lumbar_rotation
      1.45500000	     17.86072530	      6.82103876	      1.99834764	     -0.52835863	      0.91868942	      0.23174323	      7.69382396	     -6.11003794	     -4.84427436	     -9.06412772	     11.34314924	      3.15168792	     42.31045949	    -34.43685028	      6.96813885	     -2.76636182	    -13.97195706	     29.51790011	     15.24170186	     19.89400831	    -36.33972568	     -4.26781281	     -4.91896909
      1.46000000	     18.03054419	      6.62306064	      1.95833409	     -0.52067709	      0.91787795	      0.23228161	      7.63059113	     -5.78446789	     -4.38920206	     -9.98568486	     11.61957766	      3.01029993	     42.23472414	    -34.85980012	      6.67502686	     -2.98502565	    -14.47567123	     29.44490090	     15.47305848	     20.26702462	    -36.41773756	     -4.03771274	     -4.81056892
      1.46500000	     18.06776873	      6.56871674	      2.19906935	     -0.51308445	      0.91706749	      0.23244274	      7.60841126	     -5.63921004	     -4.17652001	    -10.85304752	     11.83084843	      2.74442709	     42.20978323	    -35.04970870	      6.38329783	     -2.75174851	    -15.15142595	     29.16244291	     15.37255574	     22.67837875	    -36.39122279	     -3.80197845	     -5.07523655
      1.47000000	     18.13642206	      6.43866625	      2.35948027	     -0.50544277	      0.91630178	      0.23263974	      7.64267859	     -5.41177531	     -4.19701817	    -11.92308400	     11.65163785	      2.90309992	     42.49689968	    -35.24250843	      6.06301628	     -2.68997558	    -15.89032917	     29.10002233	     15.47535442	     22.92526139	    -36.36385872	     -3.53263391	     -5.20927022
      1.47500000	     18.18942875	      6.38231725	      2.55434409	     -0.49813078	      0.91564523	      0.23270886	      7.71817582	     -5.26971011	     -4.24407461	    -12.94918066	      9.91019360	      2.27203309	     46.23946785	    -35.36630046	      5.81652308	     -2.35813227	    -16.67289934	     28.68845395	     15.20214941	     25.14305981	    -36.38297410	     -3.30050130	     -5.35860507
      1.48000000	     18.21016519	      6.16639781	      2.72367902	     -0.49078028	      0.91514395	      0.23290755	      7.83564811	     -4.95854738	     -4.26542260	    -13.95077732	      7.86646791	      1.39699986	     46.84467132	    -35.38336756	      5.42625179	     -2.19483030	    -17.58708481	     28.48805971	     15.13836931	     26.29477296	    -36.35245603	     -2.94472951	     -5.35279854
      1.48500000	     18.07346128	      6.05075148	      2.99749769	     -0.48370770	      0.91462496	      0.23284058	      8.21328473	     -4.84375473	     -4.37618252	    -15.12957479	      6.76212925	      0.92735571	     46.72123350	    -35.17458094	      5.13518757	     -1.65579752	    -18.57276872	     28.20166639	     14.78618339	     26.73847538	    -36.19357859	     -2.61851517	     -5.50661579
      1.49000000	     18.01158282	      5.87116093	      3.19346691	     -0.47654344	      0.91442123	      0.23271845	      8.49564612	     -4.69156176	     -4.42965484	    -16.28412554	      6.76356485	      1.14836411	     47.47967172	    -35.00902839	      4.85213994	     -1.17570628	    -19.58290157	     27.54732321	     14.12280084	     30.11877932	    -36.09922759	     -2.25419765	     -5.49365537
      1.49500000	     17.85567823	      5.74435410	      3.36639865	     -0.46937787	      0.91415361	      0.23274623	      8.92393805	     -4.59873605	     -4.44306049	    -17.55607760	      7.07107238	      1.43708109	     48.63072907	    -34.64451752	      4.63620618	     -0.73449931	    -20.79325052	     27.07010030	     13.61545952	     31.59324312	    -35.91208075	     -1.96522493	     -5.53579947
      1.50000000	     17.68011084	      5.61175501	      3.42006336	     -0.46231227	      0.91384823	      0.23306347	      9.46203194	     -4.48497531	     -4.37589389	    -19.01406440	      7.25689890	      1.43540776	     48.64819367	    -34.16148052	      4.47208504	     -0.49613896	    -22.17631116	     26.62471062	     13.28233273	     32.03216514	    -35.71032453	     -1.76013575	     -5.48718932
      1.50500000	     17.64706747	      5.45490521	      3.46727634	     -0.45497632	      0.91386107	      0.23323985	      9.79036482	     -4.36869488	     -4.44074915	    -20.44689028	      7.19192824	      0.89368570	     48.14917220	    -33.86169684	      4.30297026	     -0.27397057	    -23.46056822	     25.68879349	     12.53226006	     35.57719309	    -35.63391949	     -1.50131318	     -5.37273850
      1.51000000	     17.55610618	      5.21781219	      3.51719310	     -0.44752765	      0.91383001	      0.23355072	     10.08495789	     -4.13475470	     -4.36045641	    -21.70122481	      7.10012135	     -0.15573045	     47.50463718	    -33.39745052	      4.02967429	     -0.28675919	    -24.94242547	     24.81160584	     11.96794152	     37.80191185	    -35.48924861	     -1.18819401	     -5.20728964
      1.51500000	     17.43442964	      5.05159475	      3.65486272	     -0.44008282	      0.91385945	      0.23371619	     10.36517570	     -3.99020828	     -4.37198484	    -22.92037989	      7.49173527	     -0.59194573	     46.07262518	    -32.75382063	      3.76439772	     -0.25327250	    -26.67523366	     23.82802327	     11.53567090	     40.27740512	    -35.30599132	     -0.89407410	     -5.21033544
      1.52000000	     17.36974060	      4.86890221	      3.79711897	     -0.43267527	      0.91403764	      0.23389640	     10.51146310	     -3.81836609	     -4.48659701	    -24.02078228	      8.33082573	     -0.34970835	     44.45919768	    -32.08003681	      3.46281972	     -0.31198098	    -28.53003267	     22.70537725	     11.18962778	     42.88994876	    -35.19546402	     -0.56661291	     -5.23629764
